REM DIRINDEX 1\2,1\3,1\4
REM DIRNAME folder01,folder02,folder03,folder04
TITLE ""
FILE "DISC2Track22.mp3" MP3
  TRACK 01 AUDIO
    TITLE "0:"
    INDEX 01 00:00:00
  TRACK 02 AUDIO
    TITLE "4:cjc105_3055"
    INDEX 01 00:00:15
  TRACK 03 AUDIO
    TITLE "0:"
    INDEX 01 00:06:51
  TRACK 04 AUDIO
    TITLE "4:cjc105_3056"
    INDEX 01 00:07:23
  TRACK 05 AUDIO
    TITLE "0:"
    INDEX 01 00:17:14
  TRACK 06 AUDIO
    TITLE "4:cjc105_3057"
    INDEX 01 00:17:61
  TRACK 07 AUDIO
    TITLE "0:"
    INDEX 01 00:21:15
  TRACK 08 AUDIO
    TITLE "3:cjc105_3058"
    INDEX 01 00:21:55
  TRACK 09 AUDIO
    TITLE "2:cjc105_3059"
    INDEX 01 00:22:38
  TRACK 10 AUDIO
    TITLE "3:cjc105_3060"
    INDEX 01 00:24:02
  TRACK 11 AUDIO
    TITLE "2:cjc105_3061"
    INDEX 01 00:25:01
  TRACK 12 AUDIO
    TITLE "3:cjc105_3062"
    INDEX 01 00:26:58
  TRACK 13 AUDIO
    TITLE "2:cjc105_3063"
    INDEX 01 00:28:02
  TRACK 14 AUDIO
    TITLE "3:cjc105_3064"
    INDEX 01 00:29:19
  TRACK 15 AUDIO
    TITLE "2:cjc105_3065"
    INDEX 01 00:30:20
  TRACK 16 AUDIO
    TITLE "3:cjc105_3066"
    INDEX 01 00:32:74
  TRACK 17 AUDIO
    TITLE "2:cjc105_3067"
    INDEX 01 00:34:08
  TRACK 18 AUDIO
    TITLE "3:cjc105_3068"
    INDEX 01 00:35:31
  TRACK 19 AUDIO
    TITLE "2:cjc105_3069"
    INDEX 01 00:36:31
  TRACK 20 AUDIO
    TITLE "3:cjc105_3070"
    INDEX 01 00:39:45
  TRACK 21 AUDIO
    TITLE "2:cjc105_3071"
    INDEX 01 00:40:26
  TRACK 22 AUDIO
    TITLE "3:cjc105_3072"
    INDEX 01 00:41:24
  TRACK 23 AUDIO
    TITLE "2:cjc105_3073"
    INDEX 01 00:42:65
  TRACK 24 AUDIO
    TITLE "3:cjc105_3074"
    INDEX 01 00:44:34
  TRACK 25 AUDIO
    TITLE "2:cjc105_3075"
    INDEX 01 00:46:07
  TRACK 26 AUDIO
    TITLE "3:cjc105_3076"
    INDEX 01 00:47:60
  TRACK 27 AUDIO
    TITLE "2:cjc105_3077"
    INDEX 01 00:49:33
  TRACK 28 AUDIO
    TITLE "3:cjc105_3078"
    INDEX 01 00:50:62
  TRACK 29 AUDIO
    TITLE "2:cjc105_3079"
    INDEX 01 00:52:20
  TRACK 30 AUDIO
    TITLE "3:cjc105_3080"
    INDEX 01 00:53:68
  TRACK 31 AUDIO
    TITLE "2:cjc105_3081"
    INDEX 01 00:55:32
  TRACK 32 AUDIO
    TITLE "3:cjc105_3082"
    INDEX 01 00:57:13
  TRACK 33 AUDIO
    TITLE "2:cjc105_3083"
    INDEX 01 00:58:52
  TRACK 34 AUDIO
    TITLE "3:cjc105_3084"
    INDEX 01 01:00:13
  TRACK 35 AUDIO
    TITLE "2:cjc105_3085"
    INDEX 01 01:01:34
  TRACK 36 AUDIO
    TITLE "3:cjc105_3086"
    INDEX 01 01:02:61
  TRACK 37 AUDIO
    TITLE "2:cjc105_3087"
    INDEX 01 01:03:65
  TRACK 38 AUDIO
    TITLE "3:cjc105_3088"
    INDEX 01 01:05:34
  TRACK 39 AUDIO
    TITLE "2:cjc105_3089"
    INDEX 01 01:06:57
  TRACK 40 AUDIO
    TITLE "3:cjc105_3090"
    INDEX 01 01:07:68
  TRACK 41 AUDIO
    TITLE "2:cjc105_3091"
    INDEX 01 01:09:16
  TRACK 42 AUDIO
    TITLE "3:cjc105_3092"
    INDEX 01 01:10:43
  TRACK 43 AUDIO
    TITLE "2:cjc105_3093"
    INDEX 01 01:11:47
  TRACK 44 AUDIO
    TITLE "3:cjc105_3094"
    INDEX 01 01:12:73
  TRACK 45 AUDIO
    TITLE "2:cjc105_3095"
    INDEX 01 01:14:02
  TRACK 46 AUDIO
    TITLE "3:cjc105_3096"
    INDEX 01 01:15:35
  TRACK 47 AUDIO
    TITLE "2:cjc105_3097"
    INDEX 01 01:16:42
  TRACK 48 AUDIO
    TITLE "3:cjc105_3098"
    INDEX 01 01:17:71
  TRACK 49 AUDIO
    TITLE "2:cjc105_3099"
    INDEX 01 01:19:11
  TRACK 50 AUDIO
    TITLE "3:cjc105_3100"
    INDEX 01 01:20:53
  TRACK 51 AUDIO
    TITLE "2:cjc105_3101"
    INDEX 01 01:21:55
  TRACK 52 AUDIO
    TITLE "3:cjc105_3102"
    INDEX 01 01:23:40
  TRACK 53 AUDIO
    TITLE "2:cjc105_3103"
    INDEX 01 01:24:39
  TRACK 54 AUDIO
    TITLE "3:cjc105_3104"
    INDEX 01 01:26:03
  TRACK 55 AUDIO
    TITLE "2:cjc105_3105"
    INDEX 01 01:27:24
  TRACK 56 AUDIO
    TITLE "3:cjc105_3106"
    INDEX 01 01:30:32
  TRACK 57 AUDIO
    TITLE "2:cjc105_3107"
    INDEX 01 01:31:53
  TRACK 58 AUDIO
    TITLE "3:cjc105_3108"
    INDEX 01 01:34:44
  TRACK 59 AUDIO
    TITLE "2:cjc105_3109"
    INDEX 01 01:35:49
  TRACK 60 AUDIO
    TITLE "3:cjc105_3110"
    INDEX 01 01:38:06
  TRACK 61 AUDIO
    TITLE "2:cjc105_3111"
    INDEX 01 01:39:04
  TRACK 62 AUDIO
    TITLE "3:cjc105_3112"
    INDEX 01 01:40:29
  TRACK 63 AUDIO
    TITLE "2:cjc105_3113"
    INDEX 01 01:41:38
  TRACK 64 AUDIO
    TITLE "3:cjc105_3114"
    INDEX 01 01:44:54
  TRACK 65 AUDIO
    TITLE "2:cjc105_3115"
    INDEX 01 01:45:69
  TRACK 66 AUDIO
    TITLE "3:cjc105_3116"
    INDEX 01 01:47:33
  TRACK 67 AUDIO
    TITLE "2:cjc105_3117"
    INDEX 01 01:48:26
  TRACK 68 AUDIO
    TITLE "3:cjc105_3118"
    INDEX 01 01:49:37
  TRACK 69 AUDIO
    TITLE "2:cjc105_3119"
    INDEX 01 01:50:35
  TRACK 70 AUDIO
    TITLE "3:cjc105_3120"
    INDEX 01 01:51:72
  TRACK 71 AUDIO
    TITLE "2:cjc105_3121"
    INDEX 01 01:53:39
  TRACK 72 AUDIO
    TITLE "3:cjc105_3122"
    INDEX 01 01:56:06
  TRACK 73 AUDIO
    TITLE "2:cjc105_3123"
    INDEX 01 01:57:51
  TRACK 74 AUDIO
    TITLE "3:cjc105_3124"
    INDEX 01 01:59:48
  TRACK 75 AUDIO
    TITLE "2:cjc105_3125"
    INDEX 01 02:00:74
  TRACK 76 AUDIO
    TITLE "3:cjc105_3126"
    INDEX 01 02:03:61
  TRACK 77 AUDIO
    TITLE "2:cjc105_3127"
    INDEX 01 02:04:62
  TRACK 78 AUDIO
    TITLE "3:cjc105_3128"
    INDEX 01 02:06:32
  TRACK 79 AUDIO
    TITLE "2:cjc105_3129"
    INDEX 01 02:07:27
  TRACK 80 AUDIO
    TITLE "3:cjc105_3130"
    INDEX 01 02:08:54
  TRACK 81 AUDIO
    TITLE "2:cjc105_3131"
    INDEX 01 02:09:73
  TRACK 82 AUDIO
    TITLE "3:cjc105_3132"
    INDEX 01 02:11:25
  TRACK 83 AUDIO
    TITLE "2:cjc105_3133"
    INDEX 01 02:12:42
  TRACK 84 AUDIO
    TITLE "3:cjc105_3134"
    INDEX 01 02:13:67
  TRACK 85 AUDIO
    TITLE "2:cjc105_3135"
    INDEX 01 02:14:67
  TRACK 86 AUDIO
    TITLE "3:cjc105_3136"
    INDEX 01 02:16:01
  TRACK 87 AUDIO
    TITLE "2:cjc105_3137"
    INDEX 01 02:17:16
  TRACK 88 AUDIO
    TITLE "3:cjc105_3138"
    INDEX 01 02:18:74
  TRACK 89 AUDIO
    TITLE "2:cjc105_3139"
    INDEX 01 02:19:44
  TRACK 90 AUDIO
    TITLE "3:cjc105_3140"
    INDEX 01 02:22:23
  TRACK 91 AUDIO
    TITLE "2:cjc105_3141"
    INDEX 01 02:23:15
  TRACK 92 AUDIO
    TITLE "3:cjc105_3142"
    INDEX 01 02:24:22
  TRACK 93 AUDIO
    TITLE "2:cjc105_3143"
    INDEX 01 02:25:45
  TRACK 94 AUDIO
    TITLE "3:cjc105_3144"
    INDEX 01 02:27:65
  TRACK 95 AUDIO
    TITLE "2:cjc105_3145"
    INDEX 01 02:29:00
  TRACK 96 AUDIO
    TITLE "3:cjc105_3146"
    INDEX 01 02:32:12
  TRACK 97 AUDIO
    TITLE "2:cjc105_3147"
    INDEX 01 02:33:25
  TRACK 98 AUDIO
    TITLE "3:cjc105_3148"
    INDEX 01 02:35:02
  TRACK 99 AUDIO
    TITLE "2:cjc105_3149"
    INDEX 01 02:36:15
  TRACK 100 AUDIO
    TITLE "3:cjc105_3150"
    INDEX 01 02:37:44
  TRACK 101 AUDIO
    TITLE "2:cjc105_3151"
    INDEX 01 02:38:52
  TRACK 102 AUDIO
    TITLE "3:cjc105_3152"
    INDEX 01 02:40:50
  TRACK 103 AUDIO
    TITLE "2:cjc105_3153"
    INDEX 01 02:41:60
  TRACK 104 AUDIO
    TITLE "3:cjc105_3154"
    INDEX 01 02:44:25
  TRACK 105 AUDIO
    TITLE "2:cjc105_3155"
    INDEX 01 02:45:36
  TRACK 106 AUDIO
    TITLE "3:cjc105_3156"
    INDEX 01 02:47:39
  TRACK 107 AUDIO
    TITLE "2:cjc105_3157"
    INDEX 01 02:48:38
  TRACK 108 AUDIO
    TITLE "3:cjc105_3158"
    INDEX 01 02:49:45
  TRACK 109 AUDIO
    TITLE "2:cjc105_3159"
    INDEX 01 02:50:49
  TRACK 110 AUDIO
    TITLE "3:cjc105_3160"
    INDEX 01 02:52:12
  TRACK 111 AUDIO
    TITLE "2:cjc105_3161"
    INDEX 01 02:53:06
  TRACK 112 AUDIO
    TITLE "3:cjc105_3162"
    INDEX 01 02:55:54
  TRACK 113 AUDIO
    TITLE "2:cjc105_3163"
    INDEX 01 02:57:04
  TRACK 114 AUDIO
    TITLE "3:cjc105_3164"
    INDEX 01 02:59:38
  TRACK 115 AUDIO
    TITLE "2:cjc105_3165"
    INDEX 01 03:00:37
  TRACK 116 AUDIO
    TITLE "3:cjc105_3166"
    INDEX 01 03:02:44
  TRACK 117 AUDIO
    TITLE "2:cjc105_3167"
    INDEX 01 03:03:40
  TRACK 118 AUDIO
    TITLE "3:cjc105_3168"
    INDEX 01 03:05:07
  TRACK 119 AUDIO
    TITLE "2:cjc105_3169"
    INDEX 01 03:06:32
  TRACK 120 AUDIO
    TITLE "3:cjc105_3170"
    INDEX 01 03:07:67
  TRACK 121 AUDIO
    TITLE "2:cjc105_3171"
    INDEX 01 03:08:74
  TRACK 122 AUDIO
    TITLE "3:cjc105_3172"
    INDEX 01 03:11:47
  TRACK 123 AUDIO
    TITLE "2:cjc105_3173"
    INDEX 01 03:12:37
  TRACK 124 AUDIO
    TITLE "3:cjc105_3174"
    INDEX 01 03:13:68
  TRACK 125 AUDIO
    TITLE "2:cjc105_3175"
    INDEX 01 03:14:67
  TRACK 126 AUDIO
    TITLE "3:cjc105_3176"
    INDEX 01 03:16:15
  TRACK 127 AUDIO
    TITLE "2:cjc105_3177"
    INDEX 01 03:17:14
  TRACK 128 AUDIO
    TITLE "3:cjc105_3178"
    INDEX 01 03:19:35
  TRACK 129 AUDIO
    TITLE "2:cjc105_3179"
    INDEX 01 03:20:42
  TRACK 130 AUDIO
    TITLE "3:cjc105_3180"
    INDEX 01 03:22:49
  TRACK 131 AUDIO
    TITLE "2:cjc105_3181"
    INDEX 01 03:23:70
  TRACK 132 AUDIO
    TITLE "3:cjc105_3182"
    INDEX 01 03:25:22
  TRACK 133 AUDIO
    TITLE "2:cjc105_3183"
    INDEX 01 03:26:31
  TRACK 134 AUDIO
    TITLE "3:cjc105_3184"
    INDEX 01 03:27:68
  TRACK 135 AUDIO
    TITLE "2:cjc105_3185"
    INDEX 01 03:29:02
  TRACK 136 AUDIO
    TITLE "3:cjc105_3186"
    INDEX 01 03:30:72
  TRACK 137 AUDIO
    TITLE "2:cjc105_3187"
    INDEX 01 03:32:04
  TRACK 138 AUDIO
    TITLE "3:cjc105_3188"
    INDEX 01 03:33:19
  TRACK 139 AUDIO
    TITLE "2:cjc105_3189"
    INDEX 01 03:34:17
  TRACK 140 AUDIO
    TITLE "3:cjc105_3190"
    INDEX 01 03:35:42
  TRACK 141 AUDIO
    TITLE "2:cjc105_3191"
    INDEX 01 03:37:13
  TRACK 142 AUDIO
    TITLE "3:cjc105_3192"
    INDEX 01 03:38:54
  TRACK 143 AUDIO
    TITLE "2:cjc105_3193"
    INDEX 01 03:39:73
  TRACK 144 AUDIO
    TITLE "3:cjc105_3194"
    INDEX 01 03:41:42
  TRACK 145 AUDIO
    TITLE "2:cjc105_3195"
    INDEX 01 03:43:00
  TRACK 146 AUDIO
    TITLE "3:cjc105_3196"
    INDEX 01 03:45:50
  TRACK 147 AUDIO
    TITLE "2:cjc105_3197"
    INDEX 01 03:46:67
  TRACK 148 AUDIO
    TITLE "3:cjc105_3198"
    INDEX 01 03:50:08
  TRACK 149 AUDIO
    TITLE "2:cjc105_3199"
    INDEX 01 03:51:07
  TRACK 150 AUDIO
    TITLE "3:cjc105_3200"
    INDEX 01 03:53:24
  TRACK 151 AUDIO
    TITLE "2:cjc105_3201"
    INDEX 01 03:54:43
  TRACK 152 AUDIO
    TITLE "3:cjc105_3202"
    INDEX 01 03:56:73
  TRACK 153 AUDIO
    TITLE "2:cjc105_3203"
    INDEX 01 03:58:23
  TRACK 154 AUDIO
    TITLE "3:cjc105_3204"
    INDEX 01 04:01:04
  TRACK 155 AUDIO
    TITLE "2:cjc105_3205"
    INDEX 01 04:02:19
  TRACK 156 AUDIO
    TITLE "3:cjc105_3206"
    INDEX 01 04:04:67
  TRACK 157 AUDIO
    TITLE "2:cjc105_3207"
    INDEX 01 04:06:01
  TRACK 158 AUDIO
    TITLE "3:cjc105_3208"
    INDEX 01 04:07:28
  TRACK 159 AUDIO
    TITLE "2:cjc105_3209"
    INDEX 01 04:08:37
  TRACK 160 AUDIO
    TITLE "3:cjc105_3210"
    INDEX 01 04:11:20
  TRACK 161 AUDIO
    TITLE "2:cjc105_3211"
    INDEX 01 04:12:43
  TRACK 162 AUDIO
    TITLE "3:cjc105_3212"
    INDEX 01 04:13:74
  TRACK 163 AUDIO
    TITLE "2:cjc105_3213"
    INDEX 01 04:15:10
  TRACK 164 AUDIO
    TITLE "3:cjc105_3214"
    INDEX 01 04:16:41
  TRACK 165 AUDIO
    TITLE "2:cjc105_3215"
    INDEX 01 04:17:66
  TRACK 166 AUDIO
    TITLE "3:cjc105_3216"
    INDEX 01 04:20:31
  TRACK 167 AUDIO
    TITLE "2:cjc105_3217"
    INDEX 01 04:21:54
  TRACK 168 AUDIO
    TITLE "3:cjc105_3218"
    INDEX 01 04:24:28
  TRACK 169 AUDIO
    TITLE "2:cjc105_3219"
    INDEX 01 04:25:38
  TRACK 170 AUDIO
    TITLE "3:cjc105_3220"
    INDEX 01 04:27:52
  TRACK 171 AUDIO
    TITLE "2:cjc105_3221"
    INDEX 01 04:28:56
  TRACK 172 AUDIO
    TITLE "3:cjc105_3222"
    INDEX 01 04:30:64
  TRACK 173 AUDIO
    TITLE "2:cjc105_3223"
    INDEX 01 04:32:14
  TRACK 174 AUDIO
    TITLE "3:cjc105_3224"
    INDEX 01 04:35:05
  TRACK 175 AUDIO
    TITLE "2:cjc105_3225"
    INDEX 01 04:35:73
  TRACK 176 AUDIO
    TITLE "3:cjc105_3226"
    INDEX 01 04:39:44
  TRACK 177 AUDIO
    TITLE "2:cjc105_3227"
    INDEX 01 04:40:47
  TRACK 178 AUDIO
    TITLE "3:cjc105_3228"
    INDEX 01 04:42:60
  TRACK 179 AUDIO
    TITLE "2:cjc105_3229"
    INDEX 01 04:44:10
  TRACK 180 AUDIO
    TITLE "3:cjc105_3230"
    INDEX 01 04:47:41
  TRACK 181 AUDIO
    TITLE "2:cjc105_3231"
    INDEX 01 04:48:50
  TRACK 182 AUDIO
    TITLE "3:cjc105_3232"
    INDEX 01 04:51:35
  TRACK 183 AUDIO
    TITLE "2:cjc105_3233"
    INDEX 01 04:52:44
  TRACK 184 AUDIO
    TITLE "3:cjc105_3234"
    INDEX 01 04:55:17
  TRACK 185 AUDIO
    TITLE "2:cjc105_3235"
    INDEX 01 04:56:30
  TRACK 186 AUDIO
    TITLE "3:cjc105_3236"
    INDEX 01 04:59:09
  TRACK 187 AUDIO
    TITLE "2:cjc105_3237"
    INDEX 01 05:00:18
  TRACK 188 AUDIO
    TITLE "3:cjc105_3238"
    INDEX 01 05:03:38
  TRACK 189 AUDIO
    TITLE "2:cjc105_3239"
    INDEX 01 05:04:40
  TRACK 190 AUDIO
    TITLE "3:cjc105_3240"
    INDEX 01 05:06:72
  TRACK 191 AUDIO
    TITLE "2:cjc105_3241"
    INDEX 01 05:08:20
  TRACK 192 AUDIO
    TITLE "0:"
    INDEX 01 05:10:44
